<svg width="203" height="34" viewBox="0 0 203 34" fill="none" xmlns="http://www.w3.org/2000/svg">
<path d="M21.3672 19.2324L20.3928 19.4572L22.3498 19.4183L21.3672 19.2324ZM24.5254 2.53906V1.53906H23.6968L23.5428 2.35317L24.5254 2.53906ZM29.3433 2.53906L30.3195 2.75564L30.5894 1.53906H29.3433V2.53906ZM24.1387 26V27H24.9411L25.1149 26.2166L24.1387 26ZM19.2725 26L18.3008 26.2364L18.4866 27H19.2725V26ZM15.4536 10.3057L16.4253 10.0692H14.482L15.4536 10.3057ZM11.6348 26V27H12.4206L12.6064 26.2364L11.6348 26ZM6.76855 26L5.79229 26.2166L5.96608 27H6.76855V26ZM1.56396 2.53906V1.53906H0.317813L0.587699 2.75564L1.56396 2.53906ZM6.38184 2.53906L7.36417 2.35191L7.2093 1.53906H6.38184V2.53906ZM9.55615 19.2002L8.57382 19.3874L10.5303 19.4263L9.55615 19.2002ZM13.4233 2.53906V1.53906H12.6289L12.4492 2.31296L13.4233 2.53906ZM17.5161 2.53906L18.4905 2.31427L18.3117 1.53906H17.5161V2.53906ZM22.3498 19.4183L25.508 2.72495L23.5428 2.35317L20.3846 19.0465L22.3498 19.4183ZM24.5254 3.53906H29.3433V1.53906H24.5254V3.53906ZM28.367 2.32249L23.1624 25.7834L25.1149 26.2166L30.3195 2.75564L28.367 2.32249ZM24.1387 25H19.2725V27H24.1387V25ZM20.2441 25.7636L16.4253 10.0692L14.482 10.5421L18.3008 26.2364L20.2441 25.7636ZM14.482 10.0692L10.6631 25.7636L12.6064 26.2364L16.4253 10.5421L14.482 10.0692ZM11.6348 25H6.76855V27H11.6348V25ZM7.74482 25.7834L2.54023 2.32249L0.587699 2.75564L5.79229 26.2166L7.74482 25.7834ZM1.56396 3.53906H6.38184V1.53906H1.56396V3.53906ZM5.39951 2.72622L8.57382 19.3874L10.5385 19.013L7.36417 2.35191L5.39951 2.72622ZM10.5303 19.4263L14.3974 2.76516L12.4492 2.31296L8.58205 18.9741L10.5303 19.4263ZM13.4233 3.53906H17.5161V1.53906H13.4233V3.53906ZM16.5417 2.76385L20.3928 19.4572L22.3416 19.0076L18.4905 2.31427L16.5417 2.76385ZM41.2188 26L40.3289 26.4563L40.6077 27H41.2188V26ZM40.7515 24.437L41.7396 24.2837L41.4162 22.1991L40.0072 23.7691L40.7515 24.437ZM32.0986 24.8398L31.4361 25.5888L31.4396 25.592L32.0986 24.8398ZM32.4692 16.8477L31.8856 16.0356L31.8826 16.0378L32.4692 16.8477ZM38.415 15.3491V14.3491L38.4109 14.3491L38.415 15.3491ZM40.5581 15.3491V16.3491H41.5581V15.3491H40.5581ZM39.9297 12.4165L39.1656 13.0617L39.174 13.0714L39.9297 12.4165ZM36.127 12.2554L35.4867 11.4871L35.4777 11.4948L36.127 12.2554ZM35.4663 13.8022V14.8022H36.4663V13.8022H35.4663ZM30.8096 13.8022H29.8096V14.8022H30.8096V13.8022ZM34.3867 8.98438L34.7775 9.90489L34.7848 9.90172L34.3867 8.98438ZM43.3296 9.87061L42.6761 10.6276L42.6831 10.6335L43.3296 9.87061ZM45.231 21.9717H44.2309L44.231 21.9782L45.231 21.9717ZM45.9238 25.7261H46.9238V25.4768L46.8068 25.2566L45.9238 25.7261ZM45.9238 26V27H46.9238V26H45.9238ZM39.269 22.3101L39.7294 23.1978L39.7358 23.1945L39.7422 23.1911L39.269 22.3101ZM40.5581 21.0693L41.4374 21.5456L41.5581 21.3228V21.0693H40.5581ZM40.5581 18.0723H41.5581V17.0723H40.5581V18.0723ZM35.0957 20.4893L34.1 20.3963L34.0984 20.4134L34.0974 20.4305L35.0957 20.4893ZM35.0796 20.7632L34.0813 20.7045L34.0796 20.7338V20.7632H35.0796ZM42.1086 25.5437C41.9559 25.2459 41.8251 24.8346 41.7396 24.2837L39.7633 24.5903C39.8712 25.2855 40.052 25.9162 40.3289 26.4563L42.1086 25.5437ZM40.0072 23.7691C39.0832 24.7988 37.8952 25.3223 36.3525 25.3223V27.3223C38.4192 27.3223 40.1639 26.5889 41.4957 25.1049L40.0072 23.7691ZM36.3525 25.3223C34.8511 25.3223 33.6779 24.894 32.7576 24.0877L31.4396 25.592C32.7752 26.7622 34.438 27.3223 36.3525 27.3223V25.3223ZM32.7612 24.0908C31.8606 23.2942 31.4229 22.3217 31.4229 21.1016H29.4229C29.4229 22.8892 30.1023 24.409 31.4361 25.5888L32.7612 24.0908ZM31.4229 21.1016C31.4229 19.5384 31.9792 18.4375 33.0559 17.6575L31.8826 16.0378C30.2308 17.2344 29.4229 18.9694 29.4229 21.1016H31.4229ZM33.0529 17.6597C34.191 16.8416 35.9352 16.3594 38.4192 16.3491L38.4109 14.3491C35.7172 14.3603 33.4974 14.8771 31.8856 16.0356L33.0529 17.6597ZM38.415 16.3491H40.5581V14.3491H38.415V16.3491ZM41.5581 15.3491V14.3501H39.5581V15.3491H41.5581ZM41.5581 14.3501C41.5581 13.3682 41.2995 12.4702 40.6854 11.7616L39.174 13.0714C39.3978 13.3296 39.5581 13.7206 39.5581 14.3501H41.5581ZM40.6937 11.7713C40.0272 10.9821 39.0407 10.6914 37.98 10.6914V12.6914C38.7025 12.6914 39.0157 12.8841 39.1657 13.0617L40.6937 11.7713ZM37.98 10.6914C37.0407 10.6914 36.1701 10.9177 35.4868 11.4872L36.7671 13.0236C36.9861 12.8411 37.3509 12.6914 37.98 12.6914V10.6914ZM35.4777 11.4948C34.7839 12.0871 34.4663 12.8974 34.4663 13.8022H36.4663C36.4663 13.3965 36.5891 13.1756 36.7762 13.0159L35.4777 11.4948ZM35.4663 12.8022H30.8096V14.8022H35.4663V12.8022ZM31.8096 13.8022C31.8096 13.0145 32.0477 12.2835 32.5538 11.5855L30.9345 10.4116C30.1945 11.4323 29.8096 12.5704 29.8096 13.8022H31.8096ZM32.5538 11.5855C33.0535 10.8962 33.7781 10.3291 34.7775 9.90486L33.9959 8.06389C32.718 8.60641 31.6809 9.38215 30.9345 10.4116L32.5538 11.5855ZM34.7848 9.90172C35.7812 9.46933 36.9213 9.24316 38.2217 9.24316V7.24316C36.6862 7.24316 35.2696 7.51114 33.9886 8.06703L34.7848 9.90172ZM38.2217 9.24316C40.2023 9.24316 41.6489 9.74081 42.6761 10.6276L43.983 9.11364C42.4966 7.83048 40.538 7.24316 38.2217 7.24316V9.24316ZM42.6831 10.6335C43.686 11.4835 44.231 12.6959 44.231 14.4146H46.231C46.231 12.2231 45.5083 10.4062 43.9761 9.10771L42.6831 10.6335ZM44.231 14.4146V21.9717H46.231V14.4146H44.231ZM44.231 21.9782C44.2421 23.6929 44.4775 25.1359 45.0409 26.1955L46.8068 25.2566C46.4678 24.619 46.2413 23.5591 46.2309 21.9652L44.231 21.9782ZM44.9238 25.7261V26H46.9238V25.7261H44.9238ZM45.9238 25H41.2188V27H45.9238V25ZM37.3677 23.7612C38.2068 23.7612 38.9996 23.5762 39.7294 23.1978L38.8087 21.4223C38.3783 21.6455 37.9036 21.7612 37.3677 21.7612V23.7612ZM39.7422 23.1911C40.4724 22.7989 41.054 22.2535 41.4374 21.5456L39.6788 20.5931C39.5036 20.9164 39.2258 21.1982 38.7959 21.4291L39.7422 23.1911ZM41.5581 21.0693V18.0723H39.5581V21.0693H41.5581ZM40.5581 17.0723H38.8179V19.0723H40.5581V17.0723ZM38.8179 17.0723C37.5611 17.0723 36.4454 17.2853 35.5944 17.8378C34.6912 18.4243 34.2006 19.3189 34.1 20.3963L36.0914 20.5822C36.1412 20.0483 36.3461 19.7344 36.6836 19.5152C37.0734 19.2621 37.7435 19.0723 38.8179 19.0723V17.0723ZM34.0974 20.4305L34.0813 20.7045L36.0779 20.8219L36.094 20.548L34.0974 20.4305ZM34.0796 20.7632C34.0796 21.6085 34.3904 22.358 35.0144 22.9328L36.3694 21.4617C36.177 21.2845 36.0796 21.0781 36.0796 20.7632H34.0796ZM35.0144 22.9328C35.6542 23.5221 36.4798 23.7612 37.3677 23.7612V21.7612C36.8376 21.7612 36.546 21.6244 36.3694 21.4617L35.0144 22.9328ZM55.0762 20.312L54.1121 20.5778L55.0762 24.0742L56.0402 20.5778L55.0762 20.312ZM58.3149 8.56543V7.56543H57.5533L57.3509 8.29963L58.3149 8.56543ZM63.1812 8.56543L64.1287 8.88507L64.5739 7.56543H63.1812V8.56543ZM57.2998 26V27H58.0178L58.2473 26.3196L57.2998 26ZM52.8525 26L51.905 26.3196L52.1345 27H52.8525V26ZM46.9712 8.56543V7.56543H45.5785L46.0237 8.88507L46.9712 8.56543ZM51.8374 8.56543L52.8014 8.29963L52.599 7.56543H51.8374V8.56543ZM56.0402 20.5778L59.279 8.83123L57.3509 8.29963L54.1121 20.0462L56.0402 20.5778ZM58.3149 9.56543H63.1812V7.56543H58.3149V9.56543ZM62.2336 8.24579L56.3523 25.6804L58.2473 26.3196L64.1287 8.88507L62.2336 8.24579ZM57.2998 25H52.8525V27H57.2998V25ZM53.8001 25.6804L47.9187 8.24579L46.0237 8.88507L51.905 26.3196L53.8001 25.6804ZM46.9712 9.56543H51.8374V7.56543H46.9712V9.56543ZM50.8734 8.83123L54.1121 20.5778L56.0402 20.0462L52.8014 8.29963L50.8734 8.83123ZM66.7905 23.9697L66.0906 24.684L66.093 24.6863L66.7905 23.9697ZM65.4048 12.5615L66.302 13.0031L66.3034 13.0004L65.4048 12.5615ZM68.2729 9.37109L68.7874 10.2286L68.7896 10.2273L68.2729 9.37109ZM78.1504 10.499L77.4097 11.1709L77.4124 11.1738L78.1504 10.499ZM80.2129 18.7974V19.7974H81.2129V18.7974H80.2129ZM69.1108 18.7974V17.7974H67.9701L68.1194 18.9283L69.1108 18.7974ZM70.4644 21.5366L69.7896 22.2747L69.7948 22.2794L70.4644 21.5366ZM77.5542 20.6182L78.3001 19.9521L77.5007 19.057L76.7645 20.0047L77.5542 20.6182ZM79.8423 23.1802L80.659 23.7572L81.1181 23.1074L80.5881 22.5141L79.8423 23.1802ZM77.0063 25.5005L77.4239 26.4092L77.4306 26.406L77.0063 25.5005ZM70.2549 12.9482L69.523 12.2668L69.5167 12.2737L70.2549 12.9482ZM69.1592 15.623L68.1687 15.4855L68.0107 16.623H69.1592V15.623ZM75.6367 15.623V16.623H76.6367V15.623H75.6367ZM75.6367 15.2524H76.6367V15.242L76.6365 15.2316L75.6367 15.2524ZM74.7988 12.8677L74.0714 13.5539L74.078 13.5608L74.7988 12.8677ZM73.0425 25.3223C70.7077 25.3223 68.8867 24.6145 67.488 23.2531L66.093 24.6863C67.9171 26.4617 70.264 27.3223 73.0425 27.3223V25.3223ZM67.4904 23.2555C66.1136 21.9063 65.3896 20.0913 65.3896 17.7017H63.3896C63.3896 20.5327 64.2663 22.8964 66.0906 24.684L67.4904 23.2555ZM65.3896 17.7017V17.2505H63.3896V17.7017H65.3896ZM65.3896 17.2505C65.3896 15.6307 65.7019 14.2223 66.302 13.0031L64.5076 12.1199C63.7541 13.6507 63.3896 15.3683 63.3896 17.2505H65.3896ZM66.3034 13.0004C66.9015 11.7756 67.7297 10.8632 68.7874 10.2286L67.7585 8.5136C66.3455 9.36139 65.2616 10.576 64.5062 12.1227L66.3034 13.0004ZM68.7896 10.2273C69.8656 9.57801 71.1017 9.24316 72.5269 9.24316V7.24316C70.7723 7.24316 69.1725 7.66027 67.7563 8.51491L68.7896 10.2273ZM72.5269 9.24316C74.6834 9.24316 76.2684 9.91278 77.4097 11.1709L78.8911 9.82714C77.3038 8.07745 75.1399 7.24316 72.5269 7.24316V9.24316ZM77.4124 11.1738C78.5667 12.4364 79.2129 14.2952 79.2129 16.896H81.2129C81.2129 13.9753 80.4841 11.5695 78.8884 9.82425L77.4124 11.1738ZM79.2129 16.896V18.7974H81.2129V16.896H79.2129ZM80.2129 17.7974H69.1108V19.7974H80.2129V17.7974ZM68.1194 18.9283C68.2965 20.2687 68.8418 21.4081 69.7896 22.2747L71.1391 20.7986C70.583 20.2901 70.226 19.6034 70.1022 18.6664L68.1194 18.9283ZM69.7948 22.2794C70.7653 23.1542 71.9756 23.5679 73.3486 23.5679V21.5679C72.4013 21.5679 71.6888 21.2941 71.1339 20.7938L69.7948 22.2794ZM73.3486 23.5679C75.4194 23.5679 77.1259 22.7995 78.3439 21.2317L76.7645 20.0047C75.9629 21.0365 74.8657 21.5679 73.3486 21.5679V23.5679ZM76.8083 21.2843L79.0964 23.8463L80.5881 22.5141L78.3001 19.9521L76.8083 21.2843ZM79.0256 22.6031C78.4361 23.4374 77.6316 24.1033 76.5821 24.5949L77.4306 26.406C78.7658 25.7805 79.8519 24.8995 80.659 23.7572L79.0256 22.6031ZM76.5888 24.5918C75.5406 25.0734 74.3638 25.3223 73.0425 25.3223V27.3223C74.6215 27.3223 76.0873 27.0233 77.4239 26.4092L76.5888 24.5918ZM72.5107 11.0137C71.3357 11.0137 70.3095 11.4221 69.523 12.2668L70.9868 13.6297C71.3604 13.2283 71.8381 13.0137 72.5107 13.0137V11.0137ZM69.5167 12.2737C68.7673 13.0938 68.3472 14.2003 68.1687 15.4855L70.1497 15.7606C70.2934 14.7255 70.6038 14.0488 70.9931 13.6228L69.5167 12.2737ZM69.1592 16.623H75.6367V14.623H69.1592V16.623ZM76.6367 15.623V15.2524H74.6367V15.623H76.6367ZM76.6365 15.2316C76.6116 14.0341 76.282 12.9674 75.5197 12.1746L74.078 13.5608C74.3899 13.8852 74.6189 14.4083 74.6369 15.2733L76.6365 15.2316ZM75.5262 12.1815C74.7532 11.3621 73.6975 11.0137 72.5107 11.0137V13.0137C73.3005 13.0137 73.7702 13.2346 74.0714 13.5539L75.5262 12.1815ZM91.8628 17.4116L92.7528 16.9557L92.4741 16.4116H91.8628V17.4116ZM88.0117 17.4116V16.4116H87.0117V17.4116H88.0117ZM88.0117 26V27H89.0117V26H88.0117ZM83.1777 26H82.1777V27H83.1777V26ZM83.1777 2.53906V1.53906H82.1777V2.53906H83.1777ZM99.5166 13.6411L98.6782 13.0961L98.6768 13.0982L99.5166 13.6411ZM96.3745 16.187L95.9639 15.2752L94.992 15.7129L95.4907 16.6549L96.3745 16.187ZM101.45 25.7744H102.45V25.526L102.334 25.3065L101.45 25.7744ZM101.45 26V27H102.45V26H101.45ZM96.2617 26L95.3717 26.4559L95.6504 27H96.2617V26ZM88.0117 13.4961H87.0117V14.4961H88.0117V13.4961ZM94.731 12.5776L95.4078 13.3138L95.4141 13.3079L94.731 12.5776ZM94.7793 7.40527L94.0661 8.10634L94.0722 8.11238L94.7793 7.40527ZM88.0117 6.45459V5.45459H87.0117V6.45459H88.0117ZM91.8628 16.4116H88.0117V18.4116H91.8628V16.4116ZM87.0117 17.4116V26H89.0117V17.4116H87.0117ZM88.0117 25H83.1777V27H88.0117V25ZM84.1777 26V2.53906H82.1777V26H84.1777ZM83.1777 3.53906H91.895V1.53906H83.1777V3.53906ZM91.895 3.53906C94.5313 3.53906 96.4108 4.1277 97.6734 5.16482L98.9428 3.61936C97.1976 2.18578 94.8018 1.53906 91.895 1.53906V3.53906ZM97.6734 5.16482C98.9078 6.17884 99.564 7.61907 99.564 9.62891H101.564C101.564 7.12702 100.716 5.07605 98.9428 3.61936L97.6734 5.16482ZM99.564 9.62891C99.564 11.0842 99.2475 12.2203 98.6782 13.0961L100.355 14.1861C101.182 12.9135 101.564 11.3748 101.564 9.62891H99.564ZM98.6768 13.0982C98.1147 13.9677 97.2342 14.7031 95.9639 15.2752L96.7852 17.0988C98.3293 16.4033 99.5435 15.4415 100.356 14.184L98.6768 13.0982ZM95.4907 16.6549L100.566 26.2423L102.334 25.3065L97.2583 15.7191L95.4907 16.6549ZM100.45 25.7744V26H102.45V25.7744H100.45ZM101.45 25H96.2617V27H101.45V25ZM97.1518 25.5441L92.7528 16.9557L90.9727 17.8675L95.3717 26.4559L97.1518 25.5441ZM88.0117 14.4961H91.9111V12.4961H88.0117V14.4961ZM91.9111 14.4961C93.2885 14.4961 94.5017 14.1468 95.4078 13.3138L94.0542 11.8415C93.6282 12.2331 92.9615 12.4961 91.9111 12.4961V14.4961ZM95.4141 13.3079C96.3204 12.4601 96.73 11.3204 96.73 10.0156H94.73C94.73 10.8807 94.4736 11.4491 94.0478 11.8474L95.4141 13.3079ZM96.73 10.0156C96.73 8.70991 96.3497 7.56148 95.4864 6.69817L94.0722 8.11238C94.4765 8.51665 94.73 9.10845 94.73 10.0156H96.73ZM95.4924 6.70424C94.6093 5.80586 93.3389 5.45459 91.895 5.45459V7.45459C93.0508 7.45459 93.7032 7.73711 94.0662 8.10631L95.4924 6.70424ZM91.895 5.45459H88.0117V7.45459H91.895V5.45459ZM87.0117 6.45459V13.4961H89.0117V6.45459H87.0117ZM114.389 24.2275L115.387 24.155L115.205 21.6625L113.617 23.592L114.389 24.2275ZM105.333 24.7109L104.594 25.384L104.598 25.388L105.333 24.7109ZM103.835 19.9897H102.835L102.835 20.0001L103.835 19.9897ZM103.835 8.56543V7.56543H102.835V8.56543H103.835ZM108.492 8.56543H109.492V7.56543H108.492V8.56543ZM114.228 20.9082L115.108 21.3828L115.228 21.1606V20.9082H114.228ZM114.228 8.56543V7.56543H113.228V8.56543H114.228ZM118.901 8.56543H119.901V7.56543H118.901V8.56543ZM118.901 26V27H119.901V26H118.901ZM114.518 26L113.521 26.0725L113.588 27H114.518V26ZM113.617 23.592C112.682 24.7276 111.392 25.3223 109.62 25.3223V27.3223C111.907 27.3223 113.797 26.5204 115.161 24.863L113.617 23.592ZM109.62 25.3223C107.947 25.3223 106.818 24.8481 106.069 24.0339L104.598 25.388C105.825 26.7222 107.554 27.3223 109.62 27.3223V25.3223ZM106.073 24.0379C105.319 23.2096 104.855 21.9112 104.835 19.9794L102.835 20.0001C102.858 22.2148 103.393 24.0639 104.594 25.384L106.073 24.0379ZM104.835 19.9897V8.56543H102.835V19.9897H104.835ZM103.835 9.56543H108.492V7.56543H103.835V9.56543ZM107.492 8.56543V19.8286H109.492V8.56543H107.492ZM107.492 19.8286C107.492 20.8687 107.727 21.8353 108.373 22.5445C109.035 23.2714 109.967 23.5518 110.973 23.5518V21.5518C110.325 21.5518 110.016 21.3783 109.851 21.1974C109.67 20.9989 109.492 20.604 109.492 19.8286H107.492ZM110.973 23.5518C112.804 23.5518 114.294 22.8928 115.108 21.3828L113.348 20.4336C112.98 21.115 112.3 21.5518 110.973 21.5518V23.5518ZM115.228 20.9082V8.56543H113.228V20.9082H115.228ZM114.228 9.56543H118.901V7.56543H114.228V9.56543ZM117.901 8.56543V26H119.901V8.56543H117.901ZM118.901 25H114.518V27H118.901V25ZM115.515 25.9275L115.387 24.155L113.392 24.3001L113.521 26.0725L115.515 25.9275ZM126.7 8.56543L127.697 8.49362L127.63 7.56543H126.7V8.56543ZM126.845 10.5796L125.847 10.6514L126.031 13.198L127.626 11.2043L126.845 10.5796ZM137.367 14.7368H138.367L138.367 14.7269L137.367 14.7368ZM137.367 26V27H138.367V26H137.367ZM132.71 26H131.71V27H132.71V26ZM132.065 12.7065L131.341 13.3962L131.35 13.4049L132.065 12.7065ZM126.974 13.7056L126.111 13.1996L125.974 13.4339V13.7056H126.974ZM126.974 26V27H127.974V26H126.974ZM122.317 26H121.317V27H122.317V26ZM122.317 8.56543V7.56543H121.317V8.56543H122.317ZM125.702 8.63724L125.847 10.6514L127.842 10.5078L127.697 8.49362L125.702 8.63724ZM127.626 11.2043C128.671 9.89729 130.047 9.24316 131.856 9.24316V7.24316C129.475 7.24316 127.51 8.14665 126.064 9.9549L127.626 11.2043ZM131.856 9.24316C133.505 9.24316 134.555 9.71975 135.212 10.51L136.75 9.23117C135.602 7.85153 133.902 7.24316 131.856 7.24316V9.24316ZM135.212 10.51C135.907 11.3456 136.346 12.7015 136.367 14.7468L138.367 14.7269C138.344 12.4538 137.86 10.5656 136.75 9.23117L135.212 10.51ZM136.367 14.7368V26H138.367V14.7368H136.367ZM137.367 25H132.71V27H137.367V25ZM133.71 26V14.8496H131.71V26H133.71ZM133.71 14.8496C133.71 13.7518 133.477 12.7213 132.781 12.0082L131.35 13.4049C131.513 13.5727 131.71 13.9709 131.71 14.8496H133.71ZM132.79 12.0169C132.084 11.2757 131.035 11.0298 129.922 11.0298V13.0298C130.808 13.0298 131.188 13.235 131.341 13.3962L132.79 12.0169ZM129.922 11.0298C128.262 11.0298 126.948 11.7719 126.111 13.1996L127.836 14.2115C128.309 13.4048 128.961 13.0298 129.922 13.0298V11.0298ZM125.974 13.7056V26H127.974V13.7056H125.974ZM126.974 25H122.317V27H126.974V25ZM123.317 26V8.56543H121.317V26H123.317ZM122.317 9.56543H126.7V7.56543H122.317V9.56543ZM145.198 8.56543L146.195 8.49362L146.128 7.56543H145.198V8.56543ZM145.343 10.5796L144.345 10.6514L144.529 13.198L146.124 11.2043L145.343 10.5796ZM155.865 14.7368H156.865L156.865 14.7269L155.865 14.7368ZM155.865 26V27H156.865V26H155.865ZM151.208 26H150.208V27H151.208V26ZM150.563 12.7065L149.839 13.3962L149.848 13.4049L150.563 12.7065ZM145.472 13.7056L144.609 13.1996L144.472 13.4339V13.7056H145.472ZM145.472 26V27H146.472V26H145.472ZM140.815 26H139.815V27H140.815V26ZM140.815 8.56543V7.56543H139.815V8.56543H140.815ZM144.2 8.63724L144.345 10.6514L146.34 10.5078L146.195 8.49362L144.2 8.63724ZM146.124 11.2043C147.169 9.89729 148.545 9.24316 150.354 9.24316V7.24316C147.973 7.24316 146.008 8.14665 144.562 9.9549L146.124 11.2043ZM150.354 9.24316C152.003 9.24316 153.053 9.71975 153.71 10.51L155.248 9.23117C154.1 7.85153 152.4 7.24316 150.354 7.24316V9.24316ZM153.71 10.51C154.405 11.3456 154.844 12.7015 154.865 14.7468L156.865 14.7269C156.842 12.4538 156.358 10.5656 155.248 9.23117L153.71 10.51ZM154.865 14.7368V26H156.865V14.7368H154.865ZM155.865 25H151.208V27H155.865V25ZM152.208 26V14.8496H150.208V26H152.208ZM152.208 14.8496C152.208 13.7518 151.975 12.7213 151.279 12.0082L149.848 13.4049C150.011 13.5727 150.208 13.9709 150.208 14.8496H152.208ZM151.288 12.0169C150.582 11.2757 149.533 11.0298 148.42 11.0298V13.0298C149.306 13.0298 149.686 13.235 149.839 13.3962L151.288 12.0169ZM148.42 11.0298C146.76 11.0298 145.447 11.7719 144.609 13.1996L146.334 14.2115C146.807 13.4048 147.459 13.0298 148.42 13.0298V11.0298ZM144.472 13.7056V26H146.472V13.7056H144.472ZM145.472 25H140.815V27H145.472V25ZM141.815 26V8.56543H139.815V26H141.815ZM140.815 9.56543H145.198V7.56543H140.815V9.56543ZM164.324 26V27H165.324V26H164.324ZM159.651 26H158.651V27H159.651V26ZM159.651 8.56543V7.56543H158.651V8.56543H159.651ZM164.324 8.56543H165.324V7.56543H164.324V8.56543ZM160.07 2.32959L159.38 1.60619L159.372 1.61421L160.07 2.32959ZM163.873 5.79395L163.191 5.06284L163.183 5.07059L163.873 5.79395ZM160.086 5.79395L159.396 6.51735L159.404 6.525L160.086 5.79395ZM164.324 25H159.651V27H164.324V25ZM160.651 26V8.56543H158.651V26H160.651ZM159.651 9.56543H164.324V7.56543H159.651V9.56543ZM163.324 8.56543V26H165.324V8.56543H163.324ZM160.377 4.05371C160.377 3.60048 160.516 3.29165 160.769 3.04497L159.372 1.61421C158.7 2.26987 158.377 3.11046 158.377 4.05371H160.377ZM160.761 3.05295C161.006 2.81861 161.376 2.65283 161.988 2.65283V0.652832C160.988 0.652832 160.08 0.938229 159.38 1.60623L160.761 3.05295ZM161.988 2.65283C162.584 2.65283 162.951 2.81624 163.199 3.05295L164.58 1.60623C163.882 0.940596 162.981 0.652832 161.988 0.652832V2.65283ZM163.199 3.05295C163.459 3.30145 163.598 3.60783 163.598 4.05371H165.598C165.598 3.1031 165.265 2.26007 164.58 1.60623L163.199 3.05295ZM163.598 4.05371C163.598 4.50791 163.456 4.8156 163.191 5.06289L164.555 6.525C165.257 5.86994 165.598 5.01748 165.598 4.05371H163.598ZM163.183 5.07059C162.932 5.30972 162.569 5.4707 161.988 5.4707V7.4707C162.974 7.4707 163.869 7.18052 164.564 6.5173L163.183 5.07059ZM161.988 5.4707C161.407 5.4707 161.033 5.30986 160.769 5.06289L159.404 6.525C160.106 7.18037 161 7.4707 161.988 7.4707V5.4707ZM160.777 5.07059C160.52 4.82523 160.377 4.51523 160.377 4.05371H158.377C158.377 5.01016 158.708 5.86032 159.396 6.5173L160.777 5.07059ZM172.461 8.56543L173.459 8.49362L173.392 7.56543H172.461V8.56543ZM172.606 10.5796L171.609 10.6514L171.792 13.198L173.387 11.2043L172.606 10.5796ZM183.128 14.7368H184.128L184.128 14.7269L183.128 14.7368ZM183.128 26V27H184.128V26H183.128ZM178.472 26H177.472V27H178.472V26ZM177.827 12.7065L177.103 13.3962L177.111 13.4049L177.827 12.7065ZM172.735 13.7056L171.873 13.1996L171.735 13.4339V13.7056H172.735ZM172.735 26V27H173.735V26H172.735ZM168.079 26H167.079V27H168.079V26ZM168.079 8.56543V7.56543H167.079V8.56543H168.079ZM171.464 8.63724L171.609 10.6514L173.604 10.5078L173.459 8.49362L171.464 8.63724ZM173.387 11.2043C174.433 9.89729 175.809 9.24316 177.618 9.24316V7.24316C175.237 7.24316 173.272 8.14665 171.826 9.9549L173.387 11.2043ZM177.618 9.24316C179.267 9.24316 180.317 9.71975 180.974 10.51L182.512 9.23117C181.364 7.85153 179.664 7.24316 177.618 7.24316V9.24316ZM180.974 10.51C181.669 11.3456 182.108 12.7015 182.128 14.7468L184.128 14.7269C184.106 12.4538 183.621 10.5656 182.512 9.23117L180.974 10.51ZM182.128 14.7368V26H184.128V14.7368H182.128ZM183.128 25H178.472V27H183.128V25ZM179.472 26V14.8496H177.472V26H179.472ZM179.472 14.8496C179.472 13.7518 179.239 12.7213 178.543 12.0082L177.111 13.4049C177.275 13.5727 177.472 13.9709 177.472 14.8496H179.472ZM178.551 12.0169C177.845 11.2757 176.797 11.0298 175.684 11.0298V13.0298C176.569 13.0298 176.95 13.235 177.103 13.3962L178.551 12.0169ZM175.684 11.0298C174.024 11.0298 172.71 11.7719 171.873 13.1996L173.598 14.2115C174.071 13.4048 174.723 13.0298 175.684 13.0298V11.0298ZM171.735 13.7056V26H173.735V13.7056H171.735ZM172.735 25H168.079V27H172.735V25ZM169.079 26V8.56543H167.079V26H169.079ZM168.079 9.56543H172.461V7.56543H168.079V9.56543ZM187.898 10.6924L187.111 10.0759L187.108 10.0792L187.898 10.6924ZM197.518 10.209L196.741 10.8391L198.234 12.6788L198.511 10.3258L197.518 10.209ZM197.711 8.56543V7.56543H196.822L196.718 8.44859L197.711 8.56543ZM201.933 8.56543H202.933V7.56543H201.933V8.56543ZM200.885 29.3999L200.035 28.8735L200.031 28.8794L200.885 29.3999ZM189.815 32.0908L190.206 31.1704L190.199 31.1675L189.815 32.0908ZM187.06 30.125L186.251 29.5368L185.81 30.1434L186.269 30.7367L187.06 30.125ZM189.123 27.2891L189.869 26.6232L189.043 25.6982L188.314 26.7009L189.123 27.2891ZM196.229 28.2397L195.539 27.5159L195.533 27.5215L196.229 28.2397ZM197.26 24.5015H198.26V21.8625L196.511 23.8387L197.26 24.5015ZM187.93 23.873L187.143 24.4902L187.148 24.4959L187.93 23.873ZM191.604 21.2144L190.786 21.7891L190.789 21.7937L191.604 21.2144ZM197.26 20.9565L198.126 21.4555L198.26 21.2239V20.9565H197.26ZM197.26 13.625H198.26V13.3536L198.123 13.1195L197.26 13.625ZM191.604 13.3994L190.787 12.8227L190.783 12.8292L191.604 13.3994ZM186.997 17.1538C186.997 14.6353 187.592 12.7173 188.688 11.3056L187.108 10.0792C185.669 11.9331 184.997 14.3227 184.997 17.1538H186.997ZM188.685 11.3088C189.765 9.92949 191.188 9.24316 193.054 9.24316V7.24316C190.602 7.24316 188.587 8.18965 187.111 10.0759L188.685 11.3088ZM193.054 9.24316C194.71 9.24316 195.894 9.79552 196.741 10.8391L198.294 9.57887C197.014 8.00136 195.222 7.24316 193.054 7.24316V9.24316ZM198.511 10.3258L198.704 8.68227L196.718 8.44859L196.524 10.0921L198.511 10.3258ZM197.711 9.56543H201.933V7.56543H197.711V9.56543ZM200.933 8.56543V25.4199H202.933V8.56543H200.933ZM200.933 25.4199C200.933 26.7878 200.621 27.9263 200.035 28.8735L201.736 29.9263C202.546 28.6177 202.933 27.1028 202.933 25.4199H200.933ZM200.031 28.8794C199.451 29.8311 198.632 30.5611 197.543 31.073L198.394 32.883C199.819 32.2133 200.944 31.2245 201.739 29.9204L200.031 28.8794ZM197.543 31.073C196.445 31.5893 195.124 31.8643 193.554 31.8643V33.8643C195.356 33.8643 196.979 33.5484 198.394 32.883L197.543 31.073ZM193.554 31.8643C192.414 31.8643 191.301 31.6352 190.206 31.1704L189.424 33.0112C190.758 33.5777 192.137 33.8643 193.554 33.8643V31.8643ZM190.199 31.1675C189.1 30.7104 188.341 30.1471 187.851 29.5133L186.269 30.7367C187.025 31.7142 188.103 32.4615 189.431 33.0141L190.199 31.1675ZM187.869 30.7132L189.931 27.8772L188.314 26.7009L186.251 29.5368L187.869 30.7132ZM188.377 27.955C189.715 29.4545 191.388 30.2388 193.344 30.2388V28.2388C191.992 28.2388 190.85 27.7232 189.869 26.6232L188.377 27.955ZM193.344 30.2388C194.761 30.2388 196.001 29.8528 196.924 28.958L195.533 27.5215C195.081 27.9587 194.398 28.2388 193.344 28.2388V30.2388ZM196.918 28.9636C197.855 28.0705 198.26 26.8431 198.26 25.436H196.26C196.26 26.4567 195.977 27.0984 195.539 27.5159L196.918 28.9636ZM198.26 25.436V24.5015H196.26V25.436H198.26ZM196.511 23.8387C195.643 24.8195 194.512 25.3223 193.022 25.3223V27.3223C195.033 27.3223 196.728 26.6112 198.009 25.1642L196.511 23.8387ZM193.022 25.3223C191.231 25.3223 189.822 24.6437 188.713 23.2502L187.148 24.4959C188.638 26.368 190.624 27.3223 193.022 27.3223V25.3223ZM188.717 23.2559C187.602 21.8346 186.997 19.8972 186.997 17.3472H184.997C184.997 20.2112 185.68 22.6244 187.143 24.4902L188.717 23.2559ZM186.997 17.3472V17.1538H184.997V17.3472H186.997ZM189.653 17.4922C189.653 19.1916 189.993 20.66 190.786 21.7891L192.422 20.6396C191.948 19.964 191.653 18.9509 191.653 17.4922H189.653ZM190.789 21.7937C191.613 22.9528 192.789 23.5518 194.214 23.5518V21.5518C193.427 21.5518 192.863 21.2591 192.419 20.635L190.789 21.7937ZM194.214 23.5518C195.924 23.5518 197.305 22.8826 198.126 21.4555L196.393 20.4576C195.99 21.1575 195.341 21.5518 194.214 21.5518V23.5518ZM198.26 20.9565V13.625H196.26V20.9565H198.26ZM198.123 13.1195C197.295 11.7066 195.934 11.0298 194.247 11.0298V13.0298C195.33 13.0298 195.979 13.4165 196.397 14.1305L198.123 13.1195ZM194.247 11.0298C192.804 11.0298 191.619 11.6443 190.787 12.8227L192.421 13.9761C192.878 13.3283 193.454 13.0298 194.247 13.0298V11.0298ZM190.783 12.8292C189.98 13.9855 189.653 15.5904 189.653 17.4922H191.653C191.653 15.7631 191.961 14.6395 192.426 13.9696L190.783 12.8292Z" fill="white"/>
</svg>
