<svg width="216" height="42" viewBox="0 0 216 42" fill="none" xmlns="http://www.w3.org/2000/svg">
<path d="M21.3672 24.2324L20.88 24.3448L21.8585 24.3254L21.3672 24.2324ZM24.5254 7.53906V7.03906H24.1111L24.0341 7.44612L24.5254 7.53906ZM29.3433 7.53906L29.8314 7.64735L29.9663 7.03906H29.3433V7.53906ZM24.1387 31V31.5H24.5399L24.6268 31.1083L24.1387 31ZM19.2725 31L18.7866 31.1182L18.8795 31.5H19.2725V31ZM15.4536 15.3057L15.9394 15.1875H14.9678L15.4536 15.3057ZM11.6348 31V31.5H12.0277L12.1206 31.1182L11.6348 31ZM6.76855 31L6.28042 31.1083L6.36732 31.5H6.76855V31ZM1.56396 7.53906V7.03906H0.940889L1.07583 7.64735L1.56396 7.53906ZM6.38184 7.53906L6.873 7.44548L6.79557 7.03906H6.38184V7.53906ZM9.55615 24.2002L9.06499 24.2938L10.0432 24.3132L9.55615 24.2002ZM13.4233 7.53906V7.03906H13.0261L12.9363 7.42601L13.4233 7.53906ZM17.5161 7.53906L18.0033 7.42667L17.9139 7.03906H17.5161V7.53906ZM21.8585 24.3254L25.0167 7.63201L24.0341 7.44612L20.8759 24.1395L21.8585 24.3254ZM24.5254 8.03906H29.3433V7.03906H24.5254V8.03906ZM28.8551 7.43077L23.6505 30.8917L24.6268 31.1083L29.8314 7.64735L28.8551 7.43077ZM24.1387 30.5H19.2725V31.5H24.1387V30.5ZM19.7583 30.8818L15.9394 15.1875L14.9678 15.4239L18.7866 31.1182L19.7583 30.8818ZM14.9678 15.1875L11.1489 30.8818L12.1206 31.1182L15.9394 15.4239L14.9678 15.1875ZM11.6348 30.5H6.76855V31.5H11.6348V30.5ZM7.25669 30.8917L2.0521 7.43077L1.07583 7.64735L6.28042 31.1083L7.25669 30.8917ZM1.56396 8.03906H6.38184V7.03906H1.56396V8.03906ZM5.89067 7.63264L9.06499 24.2938L10.0473 24.1066L6.873 7.44548L5.89067 7.63264ZM10.0432 24.3132L13.9104 7.65211L12.9363 7.42601L9.0691 24.0871L10.0432 24.3132ZM13.4233 8.03906H17.5161V7.03906H13.4233V8.03906ZM17.0289 7.65146L20.88 24.3448L21.8544 24.12L18.0033 7.42667L17.0289 7.65146ZM41.2188 31L40.7738 31.2282L40.9132 31.5H41.2188V31ZM40.7515 29.437L41.2456 29.3603L41.0838 28.3181L40.3793 29.1031L40.7515 29.437ZM32.0986 29.8398L31.7673 30.2143L31.7691 30.2159L32.0986 29.8398ZM32.4692 21.8477L32.1774 21.4416L32.1759 21.4427L32.4692 21.8477ZM38.415 20.3491L38.415 19.8491L38.413 19.8491L38.415 20.3491ZM40.5581 20.3491V20.8491H41.0581V20.3491H40.5581ZM39.9297 17.4165L39.5476 17.7391L39.5518 17.744L39.9297 17.4165ZM36.127 17.2554L35.8068 16.8712L35.8023 16.8751L36.127 17.2554ZM35.4663 18.8022V19.3022H35.9663V18.8022H35.4663ZM30.8096 18.8022H30.3096V19.3022H30.8096V18.8022ZM34.3867 13.9844L34.5821 14.4446L34.5858 14.443L34.3867 13.9844ZM43.3296 14.8706L43.0029 15.2491L43.0063 15.2521L43.3296 14.8706ZM45.231 26.9717L44.7309 26.9717L44.731 26.9749L45.231 26.9717ZM45.9238 30.7261H46.4238V30.6014L46.3653 30.4914L45.9238 30.7261ZM45.9238 31V31.5H46.4238V31H45.9238ZM39.269 27.3101L39.4992 27.754L39.5056 27.7506L39.269 27.3101ZM40.5581 26.0693L40.9978 26.3075L41.0581 26.1961V26.0693H40.5581ZM40.5581 23.0723H41.0581V22.5723H40.5581V23.0723ZM35.0957 25.4893L34.5979 25.4428L34.5971 25.4513L34.5966 25.4599L35.0957 25.4893ZM35.0796 25.7632L34.5805 25.7338L34.5796 25.7485V25.7632H35.0796ZM41.6637 30.7718C41.4799 30.4135 41.3366 29.9473 41.2456 29.3603L40.2574 29.5137C40.3597 30.1728 40.5279 30.7486 40.7738 31.2282L41.6637 30.7718ZM40.3793 29.1031C39.3534 30.2463 38.0262 30.8223 36.3525 30.8223V31.8223C38.2882 31.8223 39.8937 31.1414 41.1236 29.771L40.3793 29.1031ZM36.3525 30.8223C34.7478 30.8223 33.4522 30.3611 32.4281 29.4638L31.7691 30.2159C33.0009 31.2952 34.5413 31.8223 36.3525 31.8223V30.8223ZM32.4299 29.4653C31.421 28.5729 30.9229 27.4636 30.9229 26.1016H29.9229C29.9229 27.7473 30.5419 29.1303 31.7673 30.2143L32.4299 29.4653ZM30.9229 26.1016C30.9229 24.3962 31.5421 23.1367 32.7626 22.2526L32.1759 21.4427C30.6679 22.5352 29.9229 24.1116 29.9229 26.1016H30.9229ZM32.7611 22.2537C34.0176 21.3505 35.8807 20.8596 38.4171 20.8491L38.413 19.8491C35.7717 19.8601 33.6708 20.3683 32.1774 21.4416L32.7611 22.2537ZM38.415 20.8491H40.5581V19.8491H38.415V20.8491ZM41.0581 20.3491V19.3501H40.0581V20.3491H41.0581ZM41.0581 19.3501C41.0581 18.4563 40.8241 17.685 40.3075 17.089L39.5518 17.744C39.8732 18.1148 40.0581 18.6325 40.0581 19.3501H41.0581ZM40.3117 17.0939C39.7744 16.4576 38.9561 16.1914 37.98 16.1914V17.1914C38.787 17.1914 39.2686 17.4086 39.5477 17.7391L40.3117 17.0939ZM37.98 16.1914C37.1183 16.1914 36.3741 16.3985 35.8069 16.8713L36.447 17.6395C36.7821 17.3603 37.2733 17.1914 37.98 17.1914V16.1914ZM35.8023 16.8751C35.2352 17.3592 34.9663 18.0222 34.9663 18.8022H35.9663C35.9663 18.2718 36.1378 17.9035 36.4516 17.6357L35.8023 16.8751ZM35.4663 18.3022H30.8096V19.3022H35.4663V18.3022ZM31.3096 18.8022C31.3096 17.9035 31.5844 17.0707 32.1489 16.292L31.3393 15.7051C30.6578 16.6451 30.3096 17.6815 30.3096 18.8022H31.3096ZM32.1489 16.292C32.7104 15.5177 33.5131 14.8985 34.5821 14.4446L34.1913 13.5241C32.983 14.0371 32.024 14.7607 31.3393 15.7051L32.1489 16.292ZM34.5858 14.443C35.6533 13.9798 36.8625 13.7432 38.2217 13.7432V12.7432C36.7449 12.7432 35.3975 13.0007 34.1877 13.5257L34.5858 14.443ZM38.2217 13.7432C40.2862 13.7432 41.8608 14.2632 43.0029 15.2491L43.6563 14.4921C42.2847 13.3081 40.454 12.7432 38.2217 12.7432V13.7432ZM43.0063 15.2521C44.1416 16.2141 44.731 17.5777 44.731 19.4146H45.731C45.731 17.3413 45.0527 15.6755 43.6529 14.4892L43.0063 15.2521ZM44.731 19.4146V26.9717H45.731V19.4146H44.731ZM44.731 26.9749C44.7419 28.6594 44.9751 30.0067 45.4823 30.9608L46.3653 30.4914C45.9702 29.7482 45.7415 28.5925 45.7309 26.9684L44.731 26.9749ZM45.4238 30.7261V31H46.4238V30.7261H45.4238ZM45.9238 30.5H41.2188V31.5H45.9238V30.5ZM37.3677 28.2612C38.131 28.2612 38.8443 28.0935 39.4992 27.7539L39.0389 26.8662C38.5336 27.1282 37.9794 27.2612 37.3677 27.2612V28.2612ZM39.5056 27.7506C40.1608 27.3987 40.6664 26.9192 40.9978 26.3075L40.1185 25.8312C39.8912 26.2507 39.5375 26.5984 39.0325 26.8696L39.5056 27.7506ZM41.0581 26.0693V23.0723H40.0581V26.0693H41.0581ZM40.5581 22.5723H38.8179V23.5723H40.5581V22.5723ZM38.8179 22.5723C37.6067 22.5723 36.6024 22.7795 35.8667 23.2572C35.1049 23.7518 34.6857 24.5013 34.5979 25.4428L35.5935 25.5357C35.6561 24.8659 35.9324 24.4069 36.4113 24.0959C36.9164 23.7679 37.6979 23.5723 38.8179 23.5723V22.5723ZM34.5966 25.4599L34.5805 25.7338L35.5787 25.7925L35.5948 25.5186L34.5966 25.4599ZM34.5796 25.7632C34.5796 26.4759 34.837 27.0897 35.3532 27.565L36.0306 26.8295C35.7304 26.5529 35.5796 26.2107 35.5796 25.7632H34.5796ZM35.3532 27.565C35.8772 28.0477 36.5693 28.2612 37.3677 28.2612V27.2612C36.7481 27.2612 36.323 27.0988 36.0306 26.8295L35.3532 27.565ZM55.0762 25.312L54.5942 25.4449L55.0762 27.1931L55.5582 25.4449L55.0762 25.312ZM58.3149 13.5654V13.0654H57.9341L57.8329 13.4325L58.3149 13.5654ZM63.1812 13.5654L63.6549 13.7253L63.8775 13.0654H63.1812V13.5654ZM57.2998 31V31.5H57.6588L57.7736 31.1598L57.2998 31ZM52.8525 31L52.3788 31.1598L52.4935 31.5H52.8525V31ZM46.9712 13.5654V13.0654H46.2748L46.4974 13.7253L46.9712 13.5654ZM51.8374 13.5654L52.3194 13.4325L52.2182 13.0654H51.8374V13.5654ZM55.5582 25.4449L58.797 13.6983L57.8329 13.4325L54.5942 25.1791L55.5582 25.4449ZM58.3149 14.0654H63.1812V13.0654H58.3149V14.0654ZM62.7074 13.4056L56.826 30.8402L57.7736 31.1598L63.6549 13.7253L62.7074 13.4056ZM57.2998 30.5H52.8525V31.5H57.2998V30.5ZM53.3263 30.8402L47.445 13.4056L46.4974 13.7253L52.3788 31.1598L53.3263 30.8402ZM46.9712 14.0654H51.8374V13.0654H46.9712V14.0654ZM51.3554 13.6983L54.5942 25.4449L55.5582 25.1791L52.3194 13.4325L51.3554 13.6983ZM66.7905 28.9697L66.4406 29.3269L66.4418 29.328L66.7905 28.9697ZM65.4048 17.5615L65.8534 17.7823L65.8541 17.7809L65.4048 17.5615ZM68.2729 14.3711L68.5302 14.7998L68.5313 14.7992L68.2729 14.3711ZM78.1504 15.499L77.7801 15.835L77.7814 15.8364L78.1504 15.499ZM80.2129 23.7974V24.2974H80.7129V23.7974H80.2129ZM69.1108 23.7974V23.2974H68.5405L68.6151 23.8628L69.1108 23.7974ZM70.4644 26.5366L70.127 26.9056L70.1296 26.908L70.4644 26.5366ZM77.5542 25.6182L77.9271 25.2851L77.5275 24.8376L77.1593 25.3114L77.5542 25.6182ZM79.8423 28.1802L80.2506 28.4687L80.4802 28.1438L80.2152 27.8471L79.8423 28.1802ZM77.0063 30.5005L77.2151 30.9548L77.2185 30.9533L77.0063 30.5005ZM70.2549 17.9482L69.8889 17.6075L69.8858 17.611L70.2549 17.9482ZM69.1592 20.623L68.6639 20.5543L68.5849 21.123H69.1592V20.623ZM75.6367 20.623V21.123H76.1367V20.623H75.6367ZM75.6367 20.2524H76.1368L76.1366 20.242L75.6367 20.2524ZM74.7988 17.8677L74.4351 18.2108L74.4384 18.2142L74.7988 17.8677ZM73.0425 30.8223C70.5968 30.8223 68.6443 30.0763 67.1393 28.6114L66.4418 29.328C68.1595 30.9999 70.3749 31.8223 73.0425 31.8223V30.8223ZM67.1405 28.6126C65.6517 27.1539 64.8896 25.2016 64.8896 22.7017H63.8896C63.8896 25.4224 64.7281 27.6489 66.4406 29.3269L67.1405 28.6126ZM64.8896 22.7017V22.2505H63.8896V22.7017H64.8896ZM64.8896 22.2505C64.8896 20.5651 65.215 19.0794 65.8534 17.7823L64.9562 17.3407C64.2411 18.7936 63.8896 20.4339 63.8896 22.2505H64.8896ZM65.8541 17.7809C66.4915 16.4757 67.3837 15.4878 68.5302 14.7998L68.0157 13.9423C66.6915 14.7368 65.6716 15.8759 64.9555 17.3421L65.8541 17.7809ZM68.5313 14.7992C69.6923 14.0986 71.0194 13.7432 72.5269 13.7432V12.7432C70.8547 12.7432 69.3458 13.1397 68.0146 13.943L68.5313 14.7992ZM72.5269 13.7432C74.7975 13.7432 76.5273 14.4539 77.7801 15.835L78.5207 15.1631C77.045 13.5363 75.0257 12.7432 72.5269 12.7432V13.7432ZM77.7814 15.8364C79.0461 17.2197 79.7129 19.2152 79.7129 21.896H80.7129C80.7129 19.0553 80.0047 16.7862 78.5194 15.1616L77.7814 15.8364ZM79.7129 21.896V23.7974H80.7129V21.896H79.7129ZM80.2129 23.2974H69.1108V24.2974H80.2129V23.2974ZM68.6151 23.8628C68.7789 25.1024 69.2771 26.1286 70.127 26.9056L70.8017 26.1676C70.1477 25.5696 69.7436 24.7697 69.6065 23.7319L68.6151 23.8628ZM70.1296 26.908C70.9962 27.6892 72.0821 28.0679 73.3486 28.0679V27.0679C72.2949 27.0679 71.4579 26.7591 70.7991 26.1652L70.1296 26.908ZM73.3486 28.0679C75.281 28.0679 76.8352 27.3587 77.9491 25.9249L77.1593 25.3114C76.2537 26.4772 75.0041 27.0679 73.3486 27.0679V28.0679ZM77.1813 25.9512L79.4694 28.5132L80.2152 27.8471L77.9271 25.2851L77.1813 25.9512ZM79.4339 27.8917C78.7901 28.8029 77.9152 29.5226 76.7942 30.0477L77.2185 30.9533C78.4823 30.3612 79.498 29.534 80.2506 28.4687L79.4339 27.8917ZM76.7976 30.0461C75.6773 30.5609 74.4283 30.8223 73.0425 30.8223V31.8223C74.5571 31.8223 75.9506 31.5358 77.2151 30.9548L76.7976 30.0461ZM72.5107 16.5137C71.4613 16.5137 70.5722 16.8736 69.8889 17.6075L70.6208 18.289C71.0977 17.7768 71.7125 17.5137 72.5107 17.5137V16.5137ZM69.8858 17.611C69.2264 18.3325 68.8338 19.3316 68.6639 20.5543L69.6544 20.6918C69.8069 19.5942 70.1447 18.81 70.624 18.2855L69.8858 17.611ZM69.1592 21.123H75.6367V20.123H69.1592V21.123ZM76.1367 20.623V20.2524H75.1367V20.623H76.1367ZM76.1366 20.242C76.1134 19.1276 75.809 18.1968 75.1592 17.5211L74.4384 18.2142C74.8629 18.6557 75.1171 19.3147 75.1368 20.2629L76.1366 20.242ZM75.1625 17.5246C74.5075 16.8302 73.5983 16.5137 72.5107 16.5137V17.5137C73.3998 17.5137 74.016 17.7665 74.4351 18.2108L75.1625 17.5246Z" fill="white"/>
<path d="M93.7798 22.4116H89.9287V31H85.0947V7.53906H93.812C96.5835 7.53906 98.7212 8.15674 100.225 9.39209C101.729 10.6274 102.481 12.373 102.481 14.6289C102.481 16.2295 102.132 17.5669 101.434 18.6411C100.746 19.7046 99.6987 20.5532 98.2915 21.187L103.367 30.7744V31H98.1787L93.7798 22.4116ZM89.9287 18.4961H93.8281C95.042 18.4961 95.9819 18.1899 96.6479 17.5776C97.314 16.9546 97.647 16.1006 97.647 15.0156C97.647 13.9092 97.3301 13.0391 96.6963 12.4053C96.0732 11.7715 95.1118 11.4546 93.812 11.4546H89.9287V18.4961ZM116.306 29.2275C115.157 30.624 113.567 31.3223 111.537 31.3223C109.667 31.3223 108.239 30.7852 107.25 29.7109C106.273 28.6367 105.773 27.063 105.752 24.9897V13.5654H110.409V24.8286C110.409 26.644 111.236 27.5518 112.89 27.5518C114.469 27.5518 115.554 27.0039 116.145 25.9082V13.5654H120.818V31H116.435L116.306 29.2275ZM128.617 13.5654L128.762 15.5796C130.008 14.022 131.678 13.2432 133.773 13.2432C135.621 13.2432 136.996 13.7856 137.898 14.8706C138.8 15.9556 139.262 17.5776 139.284 19.7368V31H134.627V19.8496C134.627 18.8613 134.412 18.147 133.982 17.7065C133.553 17.2554 132.838 17.0298 131.839 17.0298C130.529 17.0298 129.546 17.5884 128.891 18.7056V31H124.234V13.5654H128.617ZM147.115 13.5654L147.26 15.5796C148.506 14.022 150.176 13.2432 152.271 13.2432C154.119 13.2432 155.494 13.7856 156.396 14.8706C157.298 15.9556 157.76 17.5776 157.782 19.7368V31H153.125V19.8496C153.125 18.8613 152.91 18.147 152.48 17.7065C152.051 17.2554 151.336 17.0298 150.337 17.0298C149.027 17.0298 148.044 17.5884 147.389 18.7056V31H142.732V13.5654H147.115ZM166.241 31H161.568V13.5654H166.241V31ZM161.294 9.05371C161.294 8.35547 161.525 7.78076 161.987 7.32959C162.46 6.87842 163.099 6.65283 163.905 6.65283C164.7 6.65283 165.333 6.87842 165.806 7.32959C166.279 7.78076 166.515 8.35547 166.515 9.05371C166.515 9.7627 166.273 10.3428 165.79 10.7939C165.317 11.2451 164.689 11.4707 163.905 11.4707C163.121 11.4707 162.487 11.2451 162.003 10.7939C161.531 10.3428 161.294 9.7627 161.294 9.05371ZM174.378 13.5654L174.523 15.5796C175.77 14.022 177.44 13.2432 179.535 13.2432C181.382 13.2432 182.757 13.7856 183.66 14.8706C184.562 15.9556 185.024 17.5776 185.045 19.7368V31H180.389V19.8496C180.389 18.8613 180.174 18.147 179.744 17.7065C179.314 17.2554 178.6 17.0298 177.601 17.0298C176.291 17.0298 175.308 17.5884 174.652 18.7056V31H169.996V13.5654H174.378ZM187.914 22.1538C187.914 19.479 188.547 17.3252 189.815 15.6924C191.093 14.0596 192.812 13.2432 194.971 13.2432C196.883 13.2432 198.371 13.8984 199.435 15.209L199.628 13.5654H203.85V30.4199C203.85 31.9453 203.5 33.272 202.802 34.3999C202.115 35.5278 201.143 36.3872 199.886 36.978C198.629 37.5688 197.157 37.8643 195.471 37.8643C194.192 37.8643 192.946 37.6064 191.732 37.0908C190.519 36.5859 189.6 35.9307 188.977 35.125L191.04 32.2891C192.2 33.5889 193.607 34.2388 195.261 34.2388C196.497 34.2388 197.458 33.9058 198.146 33.2397C198.833 32.5845 199.177 31.6499 199.177 30.436V29.5015C198.103 30.7153 196.69 31.3223 194.939 31.3223C192.844 31.3223 191.147 30.5059 189.847 28.873C188.558 27.2295 187.914 25.0542 187.914 22.3472V22.1538ZM192.57 22.4922C192.57 24.0713 192.887 25.312 193.521 26.2144C194.155 27.106 195.025 27.5518 196.131 27.5518C197.549 27.5518 198.564 27.02 199.177 25.9565V18.625C198.554 17.5615 197.549 17.0298 196.164 17.0298C195.046 17.0298 194.166 17.4863 193.521 18.3994C192.887 19.3125 192.57 20.6768 192.57 22.4922Z" fill="white"/>
<path d="M93.7798 22.4116L94.6698 21.9557L94.3911 21.4116H93.7798V22.4116ZM89.9287 22.4116V21.4116H88.9287V22.4116H89.9287ZM89.9287 31V32H90.9287V31H89.9287ZM85.0947 31H84.0947V32H85.0947V31ZM85.0947 7.53906V6.53906H84.0947V7.53906H85.0947ZM101.434 18.6411L100.595 18.0961L100.594 18.0982L101.434 18.6411ZM98.2915 21.187L97.8808 20.2752L96.909 20.7129L97.4077 21.6549L98.2915 21.187ZM103.367 30.7744H104.367V30.526L104.251 30.3065L103.367 30.7744ZM103.367 31V32H104.367V31H103.367ZM98.1787 31L97.2887 31.4559L97.5674 32H98.1787V31ZM89.9287 18.4961H88.9287V19.4961H89.9287V18.4961ZM96.6479 17.5776L97.3248 18.3138L97.3311 18.3079L96.6479 17.5776ZM96.6963 12.4053L95.9831 13.1063L95.9892 13.1124L96.6963 12.4053ZM89.9287 11.4546V10.4546H88.9287V11.4546H89.9287ZM93.7798 21.4116H89.9287V23.4116H93.7798V21.4116ZM88.9287 22.4116V31H90.9287V22.4116H88.9287ZM89.9287 30H85.0947V32H89.9287V30ZM86.0947 31V7.53906H84.0947V31H86.0947ZM85.0947 8.53906H93.812V6.53906H85.0947V8.53906ZM93.812 8.53906C96.4483 8.53906 98.3278 9.1277 99.5904 10.1648L100.86 8.61936C99.1146 7.18578 96.7187 6.53906 93.812 6.53906V8.53906ZM99.5904 10.1648C100.825 11.1788 101.481 12.6191 101.481 14.6289H103.481C103.481 12.127 102.633 10.076 100.86 8.61936L99.5904 10.1648ZM101.481 14.6289C101.481 16.0842 101.164 17.2203 100.595 18.0961L102.272 19.1861C103.099 17.9135 103.481 16.3748 103.481 14.6289H101.481ZM100.594 18.0982C100.032 18.9677 99.1512 19.7031 97.8808 20.2752L98.7022 22.0988C100.246 21.4033 101.46 20.4415 102.273 19.184L100.594 18.0982ZM97.4077 21.6549L102.483 31.2423L104.251 30.3065L99.1753 20.7191L97.4077 21.6549ZM102.367 30.7744V31H104.367V30.7744H102.367ZM103.367 30H98.1787V32H103.367V30ZM99.0688 30.5441L94.6698 21.9557L92.8897 22.8675L97.2887 31.4559L99.0688 30.5441ZM89.9287 19.4961H93.8281V17.4961H89.9287V19.4961ZM93.8281 19.4961C95.2055 19.4961 96.4187 19.1468 97.3247 18.3138L95.9711 16.8415C95.5452 17.2331 94.8785 17.4961 93.8281 17.4961V19.4961ZM97.3311 18.3079C98.2374 17.4601 98.647 16.3204 98.647 15.0156H96.647C96.647 15.8807 96.3906 16.4491 95.9648 16.8474L97.3311 18.3079ZM98.647 15.0156C98.647 13.7099 98.2667 12.5615 97.4034 11.6982L95.9892 13.1124C96.3934 13.5166 96.647 14.1084 96.647 15.0156H98.647ZM97.4094 11.7042C96.5263 10.8059 95.2559 10.4546 93.812 10.4546V12.4546C94.9678 12.4546 95.6202 12.7371 95.9832 13.1063L97.4094 11.7042ZM93.812 10.4546H89.9287V12.4546H93.812V10.4546ZM88.9287 11.4546V18.4961H90.9287V11.4546H88.9287ZM116.306 29.2275L117.304 29.155L117.122 26.6625L115.534 28.592L116.306 29.2275ZM107.25 29.7109L106.511 30.384L106.515 30.388L107.25 29.7109ZM105.752 24.9897H104.752L104.752 25.0001L105.752 24.9897ZM105.752 13.5654V12.5654H104.752V13.5654H105.752ZM110.409 13.5654H111.409V12.5654H110.409V13.5654ZM116.145 25.9082L117.025 26.3828L117.145 26.1606V25.9082H116.145ZM116.145 13.5654V12.5654H115.145V13.5654H116.145ZM120.818 13.5654H121.818V12.5654H120.818V13.5654ZM120.818 31V32H121.818V31H120.818ZM116.435 31L115.438 31.0725L115.505 32H116.435V31ZM115.534 28.592C114.599 29.7276 113.309 30.3223 111.537 30.3223V32.3223C113.824 32.3223 115.714 31.5204 117.078 29.863L115.534 28.592ZM111.537 30.3223C109.864 30.3223 108.735 29.8481 107.986 29.0339L106.515 30.388C107.742 31.7222 109.471 32.3223 111.537 32.3223V30.3223ZM107.99 29.0379C107.236 28.2096 106.772 26.9112 106.752 24.9794L104.752 25.0001C104.775 27.2148 105.31 29.0639 106.511 30.384L107.99 29.0379ZM106.752 24.9897V13.5654H104.752V24.9897H106.752ZM105.752 14.5654H110.409V12.5654H105.752V14.5654ZM109.409 13.5654V24.8286H111.409V13.5654H109.409ZM109.409 24.8286C109.409 25.8687 109.644 26.8353 110.29 27.5445C110.952 28.2714 111.884 28.5518 112.89 28.5518V26.5518C112.242 26.5518 111.933 26.3783 111.768 26.1974C111.587 25.9989 111.409 25.604 111.409 24.8286H109.409ZM112.89 28.5518C114.721 28.5518 116.211 27.8928 117.025 26.3828L115.265 25.4336C114.897 26.115 114.217 26.5518 112.89 26.5518V28.5518ZM117.145 25.9082V13.5654H115.145V25.9082H117.145ZM116.145 14.5654H120.818V12.5654H116.145V14.5654ZM119.818 13.5654V31H121.818V13.5654H119.818ZM120.818 30H116.435V32H120.818V30ZM117.432 30.9275L117.304 29.155L115.309 29.3001L115.438 31.0725L117.432 30.9275ZM128.617 13.5654L129.614 13.4936L129.547 12.5654H128.617V13.5654ZM128.762 15.5796L127.764 15.6514L127.948 18.198L129.543 16.2043L128.762 15.5796ZM139.284 19.7368L140.284 19.7368L140.284 19.7269L139.284 19.7368ZM139.284 31V32H140.284V31H139.284ZM134.627 31H133.627V32H134.627V31ZM133.982 17.7065L133.258 18.3962L133.267 18.4049L133.982 17.7065ZM128.891 18.7056L128.028 18.1996L127.891 18.4339V18.7056H128.891ZM128.891 31V32H129.891V31H128.891ZM124.234 31H123.234V32H124.234V31ZM124.234 13.5654V12.5654H123.234V13.5654H124.234ZM127.619 13.6372L127.764 15.6514L129.759 15.5078L129.614 13.4936L127.619 13.6372ZM129.543 16.2043C130.588 14.8973 131.964 14.2432 133.773 14.2432V12.2432C131.392 12.2432 129.427 13.1467 127.981 14.9549L129.543 16.2043ZM133.773 14.2432C135.422 14.2432 136.472 14.7198 137.129 15.51L138.667 14.2312C137.519 12.8515 135.819 12.2432 133.773 12.2432V14.2432ZM137.129 15.51C137.824 16.3456 138.263 17.7015 138.284 19.7468L140.284 19.7269C140.261 17.4538 139.777 15.5656 138.667 14.2312L137.129 15.51ZM138.284 19.7368V31H140.284V19.7368H138.284ZM139.284 30H134.627V32H139.284V30ZM135.627 31V19.8496H133.627V31H135.627ZM135.627 19.8496C135.627 18.7518 135.394 17.7213 134.698 17.0082L133.267 18.4049C133.43 18.5727 133.627 18.9709 133.627 19.8496H135.627ZM134.707 17.0169C134.001 16.2757 132.952 16.0298 131.839 16.0298V18.0298C132.725 18.0298 133.105 18.235 133.258 18.3962L134.707 17.0169ZM131.839 16.0298C130.179 16.0298 128.865 16.7719 128.028 18.1996L129.753 19.2115C130.226 18.4048 130.878 18.0298 131.839 18.0298V16.0298ZM127.891 18.7056V31H129.891V18.7056H127.891ZM128.891 30H124.234V32H128.891V30ZM125.234 31V13.5654H123.234V31H125.234ZM124.234 14.5654H128.617V12.5654H124.234V14.5654ZM147.115 13.5654L148.112 13.4936L148.045 12.5654H147.115V13.5654ZM147.26 15.5796L146.262 15.6514L146.446 18.198L148.041 16.2043L147.26 15.5796ZM157.782 19.7368L158.782 19.7368L158.782 19.7269L157.782 19.7368ZM157.782 31V32H158.782V31H157.782ZM153.125 31H152.125V32H153.125V31ZM152.48 17.7065L151.756 18.3962L151.765 18.4049L152.48 17.7065ZM147.389 18.7056L146.526 18.1996L146.389 18.4339V18.7056H147.389ZM147.389 31V32H148.389V31H147.389ZM142.732 31H141.732V32H142.732V31ZM142.732 13.5654V12.5654H141.732V13.5654H142.732ZM146.117 13.6372L146.262 15.6514L148.257 15.5078L148.112 13.4936L146.117 13.6372ZM148.041 16.2043C149.086 14.8973 150.462 14.2432 152.271 14.2432V12.2432C149.89 12.2432 147.925 13.1467 146.479 14.9549L148.041 16.2043ZM152.271 14.2432C153.92 14.2432 154.97 14.7198 155.627 15.51L157.165 14.2312C156.017 12.8515 154.317 12.2432 152.271 12.2432V14.2432ZM155.627 15.51C156.322 16.3456 156.761 17.7015 156.782 19.7468L158.782 19.7269C158.759 17.4538 158.275 15.5656 157.165 14.2312L155.627 15.51ZM156.782 19.7368V31H158.782V19.7368H156.782ZM157.782 30H153.125V32H157.782V30ZM154.125 31V19.8496H152.125V31H154.125ZM154.125 19.8496C154.125 18.7518 153.892 17.7213 153.196 17.0082L151.765 18.4049C151.928 18.5727 152.125 18.9709 152.125 19.8496H154.125ZM153.205 17.0169C152.499 16.2757 151.45 16.0298 150.337 16.0298V18.0298C151.223 18.0298 151.603 18.235 151.756 18.3962L153.205 17.0169ZM150.337 16.0298C148.677 16.0298 147.364 16.7719 146.526 18.1996L148.251 19.2115C148.724 18.4048 149.376 18.0298 150.337 18.0298V16.0298ZM146.389 18.7056V31H148.389V18.7056H146.389ZM147.389 30H142.732V32H147.389V30ZM143.732 31V13.5654H141.732V31H143.732ZM142.732 14.5654H147.115V12.5654H142.732V14.5654ZM166.241 31V32H167.241V31H166.241ZM161.568 31H160.568V32H161.568V31ZM161.568 13.5654V12.5654H160.568V13.5654H161.568ZM166.241 13.5654H167.241V12.5654H166.241V13.5654ZM161.987 7.32959L161.297 6.60619L161.289 6.61421L161.987 7.32959ZM165.79 10.7939L165.108 10.0628L165.1 10.0706L165.79 10.7939ZM162.003 10.7939L161.313 11.5173L161.321 11.525L162.003 10.7939ZM166.241 30H161.568V32H166.241V30ZM162.568 31V13.5654H160.568V31H162.568ZM161.568 14.5654H166.241V12.5654H161.568V14.5654ZM165.241 13.5654V31H167.241V13.5654H165.241ZM162.294 9.05371C162.294 8.60048 162.433 8.29165 162.686 8.04497L161.289 6.61421C160.617 7.26987 160.294 8.11046 160.294 9.05371H162.294ZM162.678 8.05295C162.923 7.81861 163.293 7.65283 163.905 7.65283V5.65283C162.905 5.65283 161.997 5.93823 161.297 6.60623L162.678 8.05295ZM163.905 7.65283C164.501 7.65283 164.868 7.81624 165.116 8.05295L166.497 6.60623C165.799 5.9406 164.898 5.65283 163.905 5.65283V7.65283ZM165.116 8.05295C165.376 8.30145 165.515 8.60783 165.515 9.05371H167.515C167.515 8.1031 167.182 7.26007 166.497 6.60623L165.116 8.05295ZM165.515 9.05371C165.515 9.50791 165.373 9.8156 165.108 10.0629L166.472 11.525C167.174 10.8699 167.515 10.0175 167.515 9.05371H165.515ZM165.1 10.0706C164.849 10.3097 164.486 10.4707 163.905 10.4707V12.4707C164.891 12.4707 165.786 12.1805 166.481 11.5173L165.1 10.0706ZM163.905 10.4707C163.324 10.4707 162.95 10.3099 162.686 10.0629L161.321 11.525C162.023 12.1804 162.917 12.4707 163.905 12.4707V10.4707ZM162.694 10.0706C162.437 9.82523 162.294 9.51523 162.294 9.05371H160.294C160.294 10.0102 160.625 10.8603 161.313 11.5173L162.694 10.0706ZM174.378 13.5654L175.376 13.4936L175.309 12.5654H174.378V13.5654ZM174.523 15.5796L173.526 15.6514L173.709 18.198L175.304 16.2043L174.523 15.5796ZM185.045 19.7368L186.045 19.7368L186.045 19.7269L185.045 19.7368ZM185.045 31V32H186.045V31H185.045ZM180.389 31H179.389V32H180.389V31ZM179.744 17.7065L179.02 18.3962L179.028 18.4049L179.744 17.7065ZM174.652 18.7056L173.79 18.1996L173.652 18.4339V18.7056H174.652ZM174.652 31V32H175.652V31H174.652ZM169.996 31H168.996V32H169.996V31ZM169.996 13.5654V12.5654H168.996V13.5654H169.996ZM173.381 13.6372L173.526 15.6514L175.521 15.5078L175.376 13.4936L173.381 13.6372ZM175.304 16.2043C176.35 14.8973 177.726 14.2432 179.535 14.2432V12.2432C177.154 12.2432 175.189 13.1467 173.743 14.9549L175.304 16.2043ZM179.535 14.2432C181.184 14.2432 182.234 14.7198 182.891 15.51L184.429 14.2312C183.281 12.8515 181.581 12.2432 179.535 12.2432V14.2432ZM182.891 15.51C183.586 16.3456 184.025 17.7015 184.045 19.7468L186.045 19.7269C186.023 17.4538 185.538 15.5656 184.429 14.2312L182.891 15.51ZM184.045 19.7368V31H186.045V19.7368H184.045ZM185.045 30H180.389V32H185.045V30ZM181.389 31V19.8496H179.389V31H181.389ZM181.389 19.8496C181.389 18.7518 181.156 17.7213 180.46 17.0082L179.028 18.4049C179.192 18.5727 179.389 18.9709 179.389 19.8496H181.389ZM180.468 17.0169C179.762 16.2757 178.714 16.0298 177.601 16.0298V18.0298C178.486 18.0298 178.867 18.235 179.02 18.3962L180.468 17.0169ZM177.601 16.0298C175.941 16.0298 174.627 16.7719 173.79 18.1996L175.515 19.2115C175.988 18.4048 176.64 18.0298 177.601 18.0298V16.0298ZM173.652 18.7056V31H175.652V18.7056H173.652ZM174.652 30H169.996V32H174.652V30ZM170.996 31V13.5654H168.996V31H170.996ZM169.996 14.5654H174.378V12.5654H169.996V14.5654ZM189.815 15.6924L189.028 15.0759L189.025 15.0792L189.815 15.6924ZM199.435 15.209L198.658 15.8391L200.151 17.6788L200.428 15.3258L199.435 15.209ZM199.628 13.5654V12.5654H198.739L198.635 13.4486L199.628 13.5654ZM203.85 13.5654H204.85V12.5654H203.85V13.5654ZM202.802 34.3999L201.952 33.8735L201.948 33.8794L202.802 34.3999ZM191.732 37.0908L192.123 36.1704L192.116 36.1675L191.732 37.0908ZM188.977 35.125L188.168 34.5368L187.727 35.1434L188.186 35.7367L188.977 35.125ZM191.04 32.2891L191.786 31.6232L190.96 30.6982L190.231 31.7009L191.04 32.2891ZM198.146 33.2397L197.456 32.5159L197.45 32.5215L198.146 33.2397ZM199.177 29.5015H200.177V26.8625L198.428 28.8387L199.177 29.5015ZM189.847 28.873L189.06 29.4902L189.065 29.4959L189.847 28.873ZM193.521 26.2144L192.703 26.7891L192.706 26.7937L193.521 26.2144ZM199.177 25.9565L200.043 26.4555L200.177 26.2239V25.9565H199.177ZM199.177 18.625H200.177V18.3536L200.04 18.1195L199.177 18.625ZM193.521 18.3994L192.704 17.8227L192.7 17.8292L193.521 18.3994ZM188.914 22.1538C188.914 19.6353 189.509 17.7173 190.605 16.3056L189.025 15.0792C187.586 16.9331 186.914 19.3227 186.914 22.1538H188.914ZM190.602 16.3088C191.682 14.9295 193.105 14.2432 194.971 14.2432V12.2432C192.519 12.2432 190.504 13.1896 189.028 15.0759L190.602 16.3088ZM194.971 14.2432C196.627 14.2432 197.811 14.7955 198.658 15.8391L200.211 14.5789C198.931 13.0014 197.139 12.2432 194.971 12.2432V14.2432ZM200.428 15.3258L200.621 13.6823L198.635 13.4486L198.441 15.0921L200.428 15.3258ZM199.628 14.5654H203.85V12.5654H199.628V14.5654ZM202.85 13.5654V30.4199H204.85V13.5654H202.85ZM202.85 30.4199C202.85 31.7878 202.538 32.9263 201.952 33.8735L203.653 34.9263C204.463 33.6177 204.85 32.1028 204.85 30.4199H202.85ZM201.948 33.8794C201.368 34.8311 200.549 35.5611 199.46 36.073L200.311 37.883C201.736 37.2133 202.861 36.2245 203.656 34.9204L201.948 33.8794ZM199.46 36.073C198.362 36.5893 197.041 36.8643 195.471 36.8643V38.8643C197.273 38.8643 198.896 38.5484 200.311 37.883L199.46 36.073ZM195.471 36.8643C194.331 36.8643 193.218 36.6352 192.123 36.1704L191.341 38.0112C192.675 38.5777 194.054 38.8643 195.471 38.8643V36.8643ZM192.116 36.1675C191.017 35.7104 190.258 35.1471 189.768 34.5133L188.186 35.7367C188.942 36.7142 190.02 37.4615 191.348 38.0141L192.116 36.1675ZM189.786 35.7132L191.848 32.8772L190.231 31.7009L188.168 34.5368L189.786 35.7132ZM190.294 32.955C191.632 34.4545 193.305 35.2388 195.261 35.2388V33.2388C193.909 33.2388 192.767 32.7232 191.786 31.6232L190.294 32.955ZM195.261 35.2388C196.678 35.2388 197.918 34.8528 198.841 33.958L197.45 32.5215C196.998 32.9587 196.315 33.2388 195.261 33.2388V35.2388ZM198.835 33.9636C199.772 33.0705 200.177 31.8431 200.177 30.436H198.177C198.177 31.4567 197.894 32.0984 197.456 32.5159L198.835 33.9636ZM200.177 30.436V29.5015H198.177V30.436H200.177ZM198.428 28.8387C197.56 29.8195 196.429 30.3223 194.939 30.3223V32.3223C196.95 32.3223 198.645 31.6112 199.926 30.1642L198.428 28.8387ZM194.939 30.3223C193.148 30.3223 191.739 29.6437 190.63 28.2502L189.065 29.4959C190.555 31.368 192.541 32.3223 194.939 32.3223V30.3223ZM190.634 28.2559C189.519 26.8346 188.914 24.8972 188.914 22.3472H186.914C186.914 25.2112 187.597 27.6244 189.06 29.4902L190.634 28.2559ZM188.914 22.3472V22.1538H186.914V22.3472H188.914ZM191.57 22.4922C191.57 24.1916 191.91 25.66 192.703 26.7891L194.339 25.6396C193.865 24.964 193.57 23.9509 193.57 22.4922H191.57ZM192.706 26.7937C193.53 27.9528 194.706 28.5518 196.131 28.5518V26.5518C195.344 26.5518 194.78 26.2591 194.336 25.635L192.706 26.7937ZM196.131 28.5518C197.841 28.5518 199.222 27.8826 200.043 26.4555L198.31 25.4576C197.907 26.1575 197.258 26.5518 196.131 26.5518V28.5518ZM200.177 25.9565V18.625H198.177V25.9565H200.177ZM200.04 18.1195C199.212 16.7066 197.851 16.0298 196.164 16.0298V18.0298C197.247 18.0298 197.896 18.4165 198.314 19.1305L200.04 18.1195ZM196.164 16.0298C194.721 16.0298 193.536 16.6443 192.704 17.8227L194.338 18.9761C194.795 18.3283 195.371 18.0298 196.164 18.0298V16.0298ZM192.7 17.8292C191.897 18.9855 191.57 20.5904 191.57 22.4922H193.57C193.57 20.7631 193.878 19.6395 194.342 18.9696L192.7 17.8292Z" fill="white"/>
</svg>
